<svg width="439" height="521" viewBox="0 0 439 521" fill="none" xmlns="http://www.w3.org/2000/svg">
<g clip-path="url(#clip0)">
<path d="M412.9 107.528C454.07 170.8 440.924 265.646 412.045 343.053C383.286 420.356 338.92 480.165 280.789 505.852C222.784 531.534 151.134 523.055 96.3245 491.97C41.3892 460.873 3.28921 407.203 0.219284 356.075C-2.97673 305.106 28.9779 256.801 64.8632 194.756C100.749 132.711 140.811 56.9042 208.53 34.7903C276.365 12.6764 371.73 44.3922 412.9 107.528Z" fill="#F2F2F2" fill-opacity="0.15"/>
<path fill-rule="evenodd" clip-rule="evenodd" d="M190.911 109.298L189.267 100.995C188.802 98.6734 187.435 96.631 185.466 95.3158C183.497 94.0006 181.086 93.5202 178.763 93.9799L145.69 100.557C143.368 101.021 141.325 102.387 140.009 104.356C138.694 106.325 138.213 108.735 138.673 111.057L162.794 232.105C163.023 233.256 163.476 234.349 164.128 235.325C164.779 236.3 165.617 237.137 166.592 237.788C167.567 238.44 168.662 238.893 169.812 239.121C170.963 239.35 172.147 239.35 173.298 239.12L195.094 234.78C197.983 234.04 201.782 232.922 201.782 232.922L190.911 109.298Z" fill="#6BD5E1"/>
<path fill-rule="evenodd" clip-rule="evenodd" d="M280 493.444L282.658 501.785L304.855 496.689L302.975 486.708L280 493.444Z" fill="#E49D75"/>
<path fill-rule="evenodd" clip-rule="evenodd" d="M141.831 420.854L133.69 424.74L144.687 444.306L154.248 438.08L141.831 420.854Z" fill="#E49D75"/>
<path fill-rule="evenodd" clip-rule="evenodd" d="M192.189 215.96C192.189 215.96 214.495 333.292 220.936 349.136C212.39 356.075 141.392 421.002 141.392 421.002L153.453 438.683L256.24 379.849L235.107 204.007L192.189 215.96Z" fill="#56CAD8"/>
<path fill-rule="evenodd" clip-rule="evenodd" d="M206.634 220.388C211.874 233.47 279.939 493.625 279.939 493.625L303.759 487.344L282.817 201.025C282.817 201.025 201.398 207.306 206.634 220.388Z" fill="#6BD5E1"/>
<path fill-rule="evenodd" clip-rule="evenodd" d="M218.765 86.351C271.36 74.8913 289.999 187.938 286.435 202.023C282.872 216.108 199.715 229.973 193.619 221.446C187.523 212.918 163.15 98.4684 218.765 86.351Z" fill="#FFD98E"/>
<path fill-rule="evenodd" clip-rule="evenodd" d="M204.589 58.0496C208.054 66.9774 209.364 80.3718 210.208 93.3003C214.857 97.3449 228.611 95.9967 230.535 93.6072C228.995 89.5297 229.379 76.9081 230.228 72.984C231.078 69.06 202.654 53.0678 204.589 58.0496Z" fill="#D18C65"/>
<path fill-rule="evenodd" clip-rule="evenodd" d="M289.725 76.5683L306.395 12.4736L313.851 14.4083L297.18 78.5303L289.725 76.5683Z" fill="#DFDFDF"/>
<path d="M294.258 70.5288L298.529 71.6249" stroke="white" stroke-width="1.01" stroke-linecap="square" stroke-linejoin="round"/>
<path d="M296.451 62.0997L300.722 63.1958" stroke="white" stroke-width="1.01" stroke-linecap="square" stroke-linejoin="round"/>
<path d="M298.638 53.6707L302.914 54.7668" stroke="white" stroke-width="1.01" stroke-linecap="square" stroke-linejoin="round"/>
<path d="M300.831 45.2416L305.107 46.3377" stroke="white" stroke-width="1.01" stroke-linecap="square" stroke-linejoin="round"/>
<path d="M303.024 36.8126L307.294 37.9087" stroke="white" stroke-width="1.01" stroke-linecap="square" stroke-linejoin="round"/>
<path d="M305.217 28.3836L309.487 29.4797" stroke="white" stroke-width="1.01" stroke-linecap="square" stroke-linejoin="round"/>
<path d="M307.41 19.9545L311.68 21.0506" stroke="white" stroke-width="1.01" stroke-linecap="square" stroke-linejoin="round"/>
<path fill-rule="evenodd" clip-rule="evenodd" d="M314.629 52.2622C319.081 50.6948 322.107 54.8106 323.324 58.4716C325.275 64.3577 323.982 69.7286 322.107 70.5288C321.065 70.992 319.897 71.0898 318.793 70.8063C317.688 70.5228 316.712 69.8746 316.022 68.9668C315.89 70.5726 315.66 71.9099 312.733 73.1813C308.347 75.0831 303.501 69.345 302.355 66.3855C300.831 62.4943 301.549 56.685 304.822 55.282C307.519 54.1256 309.361 54.9586 310.211 56.0218C311.411 54.1311 312.76 52.9199 314.629 52.2622Z" fill="#56CAD8"/>
<path fill-rule="evenodd" clip-rule="evenodd" d="M311.795 40.4243C318.237 40.9723 313.396 51.1606 310.359 53.3309C308.21 51.5169 305.562 39.8927 311.795 40.4243Z" fill="#FD8369"/>
<path fill-rule="evenodd" clip-rule="evenodd" d="M195.582 160.678C195.121 170.362 192.539 196.329 211.979 200.823C230.47 205.103 291.249 163.911 302.163 161.456C313.078 159.001 313.259 162.881 321.181 159.911C336.799 154.046 333.789 147.612 332.556 141.008C325.944 143.157 231.933 166.219 228.759 167.052C227.405 164.045 226.672 160.796 226.605 157.499C226.605 157.499 196.042 150.994 195.582 160.678Z" fill="#E49D75"/>
<path fill-rule="evenodd" clip-rule="evenodd" d="M207.341 107.144C233.523 105.873 235.409 159.582 231.56 163.106C227.712 166.63 191.322 169.2 188.581 165.194C185.84 161.187 184.245 108.268 207.341 107.144Z" fill="#FFE4AD"/>
<path fill-rule="evenodd" clip-rule="evenodd" d="M263.345 138.619C257.151 140.175 253.187 145.634 254.492 150.807C255.796 155.981 261.871 158.935 268.071 157.351L335.598 140.362L330.884 121.629L263.345 138.619Z" fill="#FD8369"/>
<path fill-rule="evenodd" clip-rule="evenodd" d="M262.402 125.181L358.009 101.017L361.298 114.05L265.691 138.208L262.402 125.181Z" fill="#DFDFDF"/>
<path fill-rule="evenodd" clip-rule="evenodd" d="M259.963 102.858L329.162 85.37L334.677 107.177L265.472 124.665L259.963 102.858Z" fill="#56CAD8"/>
<path fill-rule="evenodd" clip-rule="evenodd" d="M236.587 94.9664L332.21 70.8028L335.5 83.8519L239.893 108.01L236.587 94.9664Z" fill="#FD8369"/>
<path d="M264.88 140.526L268.306 154.337" stroke="#6BD5E1" stroke-width="1.36" stroke-linecap="square" stroke-linejoin="round"/>
<path d="M286.901 104.355L267.374 109.287L268.931 115.442L288.458 110.509L286.901 104.355Z" fill="#DFDFDF"/>
<path d="M243.456 100.063L282.872 89.9736" stroke="#FFD98E" stroke-width="2.42" stroke-linecap="round" stroke-linejoin="round"/>
<path fill-rule="evenodd" clip-rule="evenodd" d="M115.923 433.679L147.247 491.657L156.079 486.999L146.238 444.251L133.761 424.565L115.923 433.679Z" fill="#2B2B2B"/>
<path fill-rule="evenodd" clip-rule="evenodd" d="M285.416 521L350.312 509.491L348.667 499.626L304.965 495.521L282.362 501.183L285.416 521Z" fill="#2B2B2B"/>
<path fill-rule="evenodd" clip-rule="evenodd" d="M242.903 17.2965C240.43 3.83633 227.197 -1.9511 215.504 0.57542C195.171 4.95983 185.353 15.9209 173.21 17.9651C154.79 21.0452 137.637 14.1287 118.302 19.2256C92.0979 26.1311 88.2002 44.8361 91.9883 61.6174C98.2981 89.3763 122.183 95.5966 140.093 92.977C166.187 89.1406 166.631 70.748 182.995 67.9365C190.643 66.6266 195.604 68.3037 203.383 66.8404C211.162 65.3771 223.787 55.2929 227.504 51.4511C231.221 47.6092 244.372 25.2871 242.903 17.2965Z" fill="black"/>
<path fill-rule="evenodd" clip-rule="evenodd" d="M201.404 47.1763C198.663 30.932 206.255 16.5237 218.365 14.9947C230.475 13.4656 242.524 25.3967 245.265 41.6519C248.007 57.9071 240.414 72.3045 228.304 73.8335C216.194 75.3626 204.145 63.4205 201.404 47.1763Z" fill="#E49D75"/>
<path fill-rule="evenodd" clip-rule="evenodd" d="M237.92 21.374C239.921 32.0281 208.898 49.1876 199.14 51.3415C189.382 53.4953 185.665 33.3764 185.665 33.3764C185.665 33.3764 218.672 -5.27774 237.92 21.374Z" fill="black"/>
<path fill-rule="evenodd" clip-rule="evenodd" d="M198.169 55.6711C198.168 54.5184 198.509 53.3913 199.149 52.4324C199.789 51.4735 200.699 50.7259 201.764 50.2843C202.829 49.8427 204.001 49.7269 205.132 49.9515C206.263 50.1761 207.302 50.7311 208.117 51.5462C208.933 52.3612 209.488 53.3998 209.713 54.5304C209.937 55.661 209.821 56.8328 209.38 57.8976C208.938 58.9623 208.19 59.8721 207.231 60.5119C206.272 61.1516 205.144 61.4925 203.991 61.4914C202.447 61.4914 200.966 60.8782 199.875 59.7867C198.783 58.6951 198.169 57.2147 198.169 55.6711V55.6711Z" fill="#E49D75"/>
<path d="M187.485 104.294C190.298 101.953 193.628 100.315 197.199 99.5152" stroke="#6BD5E1" stroke-width="4" stroke-linecap="round" stroke-linejoin="round"/>
<path d="M197.221 99.5152C214.402 95.7446 232.783 112.942 238.27 137.934C240.463 147.837 240.271 157.477 238.199 165.742" stroke="#6BD5E1" stroke-width="4" stroke-linecap="round" stroke-linejoin="round"/>
</g>
<defs>
<clipPath id="clip0">
<rect width="439" height="521" fill="white"/>
</clipPath>
</defs>
</svg>
